<?xml version="1.0" standalone="no"?>
<!DOCTYPE svg PUBLIC "-//W3C//DTD SVG 20010904//EN"
 "http://www.w3.org/TR/2001/REC-SVG-20010904/DTD/svg10.dtd">
<svg version="1.0" xmlns="http://www.w3.org/2000/svg"
 width="30.000000pt" height="30.000000pt" viewBox="0 0 30.000000 30.000000"
 preserveAspectRatio="xMidYMid meet">

<g transform="translate(0.000000,30.000000) scale(0.100000,-0.100000)"
fill="#000000" stroke="none">
<path d="M96 290 c-38 -12 -66 -38 -82 -77 -38 -89 53 -180 157 -159 25 5 39
0 69 -24 21 -17 43 -30 49 -30 22 0 11 36 -19 60 l-31 25 16 39 c23 54 13 97
-31 135 -19 17 -40 31 -47 31 -7 0 -21 2 -32 5 -11 2 -33 0 -49 -5z m101 -62
c46 -43 21 -122 -41 -133 -84 -16 -141 72 -84 132 29 31 92 32 125 1z"/>
</g>
</svg>
